<svg xmlns="http://www.w3.org/2000/svg" viewBox="0 0 40.83 27.28"><defs><style>.cls-1{isolation:isolate;}.cls-2{opacity:0.67;mix-blend-mode:multiply;}.cls-3{fill:#231f20;}</style></defs><title>aspas_1</title><g class="cls-1"><g id="Camada_2" data-name="Camada 2"><g id="Layer_1" data-name="Layer 1"><g class="cls-2"><path class="cls-3" d="M19.14,18a8.77,8.77,0,0,1-2.79,6.53,8.84,8.84,0,0,1-6.44,2.71,8.86,8.86,0,0,1-7.29-3.39A11.6,11.6,0,0,1,0,16.18Q0,7.8,14.23,0l1.35,2.12c-3.21,2.66-4.82,4.8-4.82,6.44,0,.51.67,1,2,1.52a13.19,13.19,0,0,1,4.15,2.12Q19.15,14.06,19.14,18Z"/><path class="cls-3" d="M40.83,18a9.18,9.18,0,0,1-2.54,6.53,8.92,8.92,0,0,1-6.52,2.71,8.86,8.86,0,0,1-7.29-3.39,11.4,11.4,0,0,1-2.7-7.71Q21.78,7.8,36,0l1.52,2.12c-3.33,2.66-5,4.8-5,6.44,0,.51.74,1,2.2,1.52A13,13,0,0,1,38.8,12.2C40.16,13.44,40.83,15.39,40.83,18Z"/></g></g></g></g></svg>