<?xml version="1.0" encoding="utf-8"?>
<!-- Generator: Adobe Illustrator 23.0.1, SVG Export Plug-In . SVG Version: 6.00 Build 0)  -->
<svg version="1.1" id="Camada_1" xmlns="http://www.w3.org/2000/svg" xmlns:xlink="http://www.w3.org/1999/xlink" x="0px" y="0px"
	 viewBox="0 0 7680 51.9" style="enable-background:new 0 0 7680 51.9;" xml:space="preserve">
<style type="text/css">
	.st0{fill:url(#SVGID_1_);}
	.st1{fill:url(#SVGID_2_);}
</style>
<title>wavesvg</title>
<g>
	<g id="Camada_1-2">
		
			<linearGradient id="SVGID_1_" gradientUnits="userSpaceOnUse" x1="3840" y1="54.0024" x2="3840" y2="2.12" gradientTransform="matrix(1 0 0 -1 0 54)">
			<stop  offset="0" style="stop-color:#FFFFFF;stop-opacity:0.3"/>
			<stop  offset="1" style="stop-color:#FFFFFF"/>
		</linearGradient>
		<path class="st0" d="M7680,16v35.1c0,0-3840.1,1.8-3840,0c0,0-3840.1,1.8-3840,0S0,16,0,16c121.6,12,255.9,19.2,382.4,9.8
			c39.8-3,76.9-8.1,115-12.5C613.9-0.3,745-4.4,866.7,5.3c35,2.8,69.3,8,104,11.7c35.7,3.8,71.8,6.4,107.8,8.6
			c87.6,5.4,176.3,6.7,263.8,0.2c39.8-3,76.8-8.1,115-12.5c116.6-13.5,247.6-17.7,369.3-8c30.2,2.4,59.8,6.4,89.6,10
			s60.3,5.9,90.1,8.1c32.7,2.4,65.4,4.1,98.3,5.4c65.9,2.3,132.2,1.9,197.7-3c39.8-3,76.9-8.1,115-12.5
			C2533.9-0.3,2665-4.4,2786.7,5.3c35,2.8,69.3,8,104,11.7c35.7,3.8,71.8,6.4,107.8,8.6c87.6,5.4,176.3,6.7,263.8,0.2
			c39.8-3,76.9-8.1,115-12.5c116.6-13.5,247.6-17.7,369.3-8c12.3,1,24.5,2.1,36.7,3.4c11.9,1.3,23.8,2.7,35.7,4.3
			c12.1,1.6,24.2,3.3,36.4,4.5c11.3,1.1,22.6,2.1,34,3c11.6,1,23.3,1.9,35,2.8c11.8,0.9,23.6,1.6,35.4,2.4
			c11.8,0.7,23.7,1.4,35.7,1.9c12,0.6,24,1,35.9,1.4c11.9,0.4,23.9,0.7,36,0.9c12,0.2,24,0.3,36.1,0.3c12,0,24-0.2,36-0.4
			c11.9-0.3,23.9-0.6,35.8-1.1c11.9-0.5,23.8-1.1,35.5-1.9c3.9-0.3,7.8-0.5,11.6-0.8c39.8-3,76.9-8.1,115-12.5
			c116.5-13.6,247.6-17.7,369.3-8c35,2.8,69.3,8,104,11.7c35.7,3.8,71.8,6.4,107.8,8.6c87.6,5.4,176.3,6.7,263.8,0.2
			c39.8-3,76.9-8.1,115-12.5c116.6-13.5,247.6-17.7,369.3-8c30.2,2.4,59.8,6.4,89.6,10s60.3,5.9,90.1,8.1
			c32.7,2.4,65.4,4.1,98.3,5.4c65.9,2.3,132.2,1.9,197.7-3c39.8-3,76.9-8.1,115-12.5C6373.9-0.3,6505-4.4,6626.7,5.3
			c35,2.8,69.3,8,104,11.7c35.7,3.8,71.8,6.4,107.8,8.6c87.6,5.4,176.3,6.7,263.8,0.2c39.8-3,76.9-8.1,115-12.5
			c116.6-13.5,247.6-17.7,369.3-8C7618.9,7.9,7650.3,11.4,7680,16z"/>
	</g>
</g>
<g>
	<g id="Camada_1-2_1_">
		<linearGradient id="SVGID_2_" gradientUnits="userSpaceOnUse" x1="3486.3999" y1="396" x2="3486.3999" y2="446">
			<stop  offset="0" style="stop-color:#FFFFFF;stop-opacity:0.3"/>
			<stop  offset="1" style="stop-color:#FFFFFF"/>
		</linearGradient>
		<path class="st1" d="M7326.4,411.4v33.8c0,0-3840.1,1.7-3840,0c0,0-3840.1,1.7-3840,0c0.1-1.7,0-33.8,0-33.8
			C-232,423-97.7,429.9,28.8,420.9c39.8-2.9,76.9-7.8,115-12.1c116.6-13.1,247.6-17,369.3-7.7c35,2.7,69.3,7.7,104,11.3
			c35.7,3.6,71.8,6.1,107.8,8.3c87.6,5.2,176.3,6.5,263.8,0.2c39.8-2.9,76.8-7.8,115-12.1c116.6-13.1,247.6-17,369.3-7.7
			c30.2,2.3,59.8,6.2,89.6,9.6s60.3,5.7,90.1,7.8c32.7,2.3,65.4,4,98.3,5.2c65.9,2.2,132.2,1.8,197.7-2.9
			c39.8-2.9,76.9-7.8,115-12.1c116.6-13,247.6-17,369.3-7.6c35,2.7,69.3,7.7,104,11.3c35.7,3.6,71.8,6.1,107.8,8.3
			c87.6,5.2,176.3,6.5,263.8,0.2c39.8-2.9,76.9-7.8,115-12.1c116.6-13.1,247.6-17,369.3-7.7c12.3,0.9,24.5,2,36.7,3.3
			c11.9,1.2,23.8,2.6,35.7,4.1c12.1,1.6,24.2,3.2,36.4,4.3c11.3,1.1,22.6,2,34,2.9c11.6,1,23.3,1.8,35,2.7
			c11.8,0.8,23.6,1.6,35.4,2.3c11.8,0.7,23.7,1.3,35.7,1.9c12,0.5,24,1,35.9,1.4c11.9,0.4,23.9,0.7,36,0.8c12,0.2,24,0.3,36.1,0.2
			c12,0,24-0.2,36-0.4c11.9-0.3,23.9-0.6,35.8-1.1s23.8-1.1,35.5-1.9c3.9-0.3,7.8-0.5,11.6-0.8c39.8-2.9,76.9-7.8,115-12.1
			c116.5-13.1,247.6-17,369.3-7.7c35,2.7,69.3,7.7,104,11.3c35.7,3.6,71.8,6.1,107.8,8.3c87.6,5.2,176.3,6.5,263.8,0.2
			c39.8-2.9,76.9-7.8,115-12.1c116.6-13.1,247.6-17,369.3-7.7c30.2,2.3,59.8,6.2,89.6,9.6s60.3,5.7,90.1,7.8
			c32.7,2.3,65.4,4,98.3,5.2c65.9,2.2,132.2,1.8,197.7-2.9c39.8-2.9,76.9-7.8,115-12.1c116.6-13,247.6-17,369.3-7.6
			c35,2.7,69.3,7.7,104,11.3c35.7,3.6,71.8,6.1,107.8,8.3c87.6,5.2,176.3,6.5,263.8,0.2c39.8-2.9,76.9-7.8,115-12.1
			c116.6-13.1,247.6-17,369.3-7.7C7265.3,403.6,7296.7,407,7326.4,411.4z"/>
	</g>
</g>
</svg>
